<svg width="25" height="24" viewBox="0 0 25 24" fill="none" xmlns="http://www.w3.org/2000/svg">
<path d="M13.02 5.1854C12.8747 5.18541 12.7354 5.12781 12.6325 5.02523C12.5296 4.92266 12.4716 4.78348 12.4712 4.6382C12.4712 3.6202 12.8756 2.64389 13.5954 1.92405C14.3153 1.20421 15.2916 0.799805 16.3096 0.799805C16.6136 0.799805 16.8568 1.0462 16.8568 1.3486C16.856 2.3655 16.4516 3.34051 15.7326 4.05956C15.0135 4.77862 14.0385 5.18296 13.0216 5.1838L13.02 5.1854ZM21.0248 16.731C21.236 16.8894 21.3048 17.179 21.1848 17.4142C19.2568 21.2766 17.716 23.1998 16.3096 23.1998C15.6552 23.1998 15.012 22.9886 14.3848 22.5758C13.9368 22.2807 13.4146 22.1181 12.8782 22.1064C12.3419 22.0948 11.8132 22.2348 11.3528 22.5102C10.5944 22.9646 9.8696 23.1998 9.1832 23.1998C7.1128 23.1998 3.7 16.8286 3.7 13.331C3.7 9.5998 5.6568 6.7518 8.6344 6.7518C10.0344 6.7518 11.244 6.95981 12.26 7.3758C12.6904 7.55501 13.1768 7.5422 13.5976 7.3406C14.4216 6.9438 15.508 6.7518 16.8584 6.7518C18.5064 6.7518 19.94 7.57261 21.1336 9.16461C21.2209 9.28091 21.2585 9.42712 21.2381 9.57112C21.2177 9.71512 21.141 9.84514 21.0248 9.9326C19.692 10.931 19.0504 12.0542 19.0504 13.331C19.0504 14.6094 19.692 15.731 21.0248 16.731Z" fill="#252525" stroke="#252525"/>
</svg>
