<svg width="21" height="20" viewBox="0 0 21 20" fill="none" xmlns="http://www.w3.org/2000/svg">
<g clip-path="url(#clip0_520_1060)">
<path d="M10.9395 3.73047H9.68945V10.6879L14.2056 12.8343L14.7422 11.7054L10.9395 9.89801V3.73047Z" fill="#F4C343"/>
<path d="M10.3335 0.625C5.15584 0.625 0.958496 4.82234 0.958496 10C0.958496 15.1777 5.15584 19.375 10.3335 19.375C15.5112 19.375 19.7085 15.1777 19.7085 10C19.7085 4.82234 15.5112 0.625 10.3335 0.625ZM10.3335 18.125C5.84619 18.125 2.2085 14.4873 2.2085 10C2.2085 5.5127 5.84619 1.875 10.3335 1.875C14.8208 1.875 18.4585 5.5127 18.4585 10C18.4585 14.4873 14.8208 18.125 10.3335 18.125Z" fill="#F4C343"/>
</g>
<defs>
<clipPath id="clip0_520_1060">
<rect width="20" height="20" fill="white" transform="translate(0.333496)"/>
</clipPath>
</defs>
</svg>
