<svg width="25" height="24" viewBox="0 0 25 24" fill="none" xmlns="http://www.w3.org/2000/svg">
<path d="M22.3719 0.905273H2.63C1.9538 0.905273 1.40562 1.45344 1.40562 2.12965V21.8715C1.40562 22.5477 1.9538 23.0959 2.63 23.0959H22.3719C23.0481 23.0959 23.5962 22.5477 23.5962 21.8715V2.12965C23.5962 1.45344 23.0481 0.905273 22.3719 0.905273Z" fill="#3D5A98"/>
<path d="M16.715 23.0943V14.5012H19.5987L20.03 11.1524H16.715V9.01494C16.715 8.04557 16.985 7.38369 18.3744 7.38369H20.1481V4.38369C19.2892 4.29418 18.4261 4.25161 17.5625 4.25619C15.0087 4.25619 13.25 5.81244 13.25 8.68307V11.1524H10.3662V14.5012H13.25V23.0943H16.715Z" fill="white"/>
</svg>
