<svg width="32" height="49" viewBox="0 0 32 49" fill="none" xmlns="http://www.w3.org/2000/svg">
<path d="M32 0H0C0 0 0 18.4357 0 20.2V45.8C0 47.5643 1.43573 49 3.2 49H28.8C30.5643 49 32 47.5643 32 45.8V20.2C32 18.4357 32 0 32 0ZM24.2891 34.5328L16.7499 42.0709C16.5419 42.2789 16.2688 42.3835 15.9957 42.3835C15.7227 42.3835 15.4496 42.2789 15.2416 42.0709L7.70027 34.5307C5.21173 32.0421 5.21067 27.9835 7.69813 25.4832C8.90987 24.2779 10.5173 23.6165 12.2293 23.6165C13.6064 23.6165 14.9109 24.6917 15.9957 25.4832C17.0837 24.6917 18.3947 23.6165 19.7707 23.6165C21.4837 23.6165 23.0891 24.2789 24.2912 25.4811C25.5008 26.6907 26.1664 28.3024 26.1632 30.0187C26.1621 31.7285 25.4965 33.3328 24.2891 34.5328Z" fill="#F4C343"/>
</svg>
