<svg viewBox="0 0 28 44" fill="none" xmlns="http://www.w3.org/2000/svg">
<g clip-path="url(#clip0_1377_2192)">
<path d="M0 0H28V40C28 42.2091 26.2091 44 24 44H4C1.79086 44 0 42.2091 0 40V0Z" fill="currentColor" fill-opacity="0.5"/>
<g filter="url(#filter0_d_1377_2192)">
<path d="M28 0H0C0 0 0 16.5545 0 18.1388V41.1265C0 42.7108 1.25627 44 2.8 44H25.2C26.7437 44 28 42.7108 28 41.1265V18.1388C28 16.5545 28 0 28 0ZM21.2529 31.009L14.6561 37.778C14.4741 37.9648 14.2352 38.0586 13.9963 38.0586C13.7573 38.0586 13.5184 37.9648 13.3364 37.778L6.73773 31.0071C4.56027 28.7725 4.55933 25.128 6.73587 22.8829C7.79613 21.8005 9.20267 21.2067 10.7007 21.2067C11.9056 21.2067 13.0471 22.1722 13.9963 22.8829C14.9483 22.1722 16.0953 21.2067 17.2993 21.2067C18.7983 21.2067 20.2029 21.8015 21.2548 22.881C22.3132 23.9671 22.8956 25.4144 22.8928 26.9555C22.8919 28.4909 22.3095 29.9315 21.2529 31.009Z" fill="currentColor"/>
<path d="M28.1 0V-0.1H28H0H-0.1V0H0C-0.1 0 -0.1 6.31506e-05 -0.1 0.000189217V0.000755928V0.00169872V0.00301619V0.00470693V0.00676953V0.00920257V0.0120046V0.0151744V0.0187103V0.022611V0.0268752V0.0315013V0.036488V0.0418339V0.0475376V0.0535976V0.0600125V0.066781V0.0739016V0.081373V0.0891936V0.0973622V0.105877V0.114737V0.123941V0.133487V0.143374V0.1536V0.164165V0.175066V0.186302V0.197872V0.209774V0.222008V0.234571V0.247462V0.26068V0.274223V0.28809V0.30228V0.316791V0.331622V0.346771V0.362236V0.378018V0.394113V0.410521V0.42724V0.444269V0.461607V0.479252V0.497202V0.515456V0.534013V0.552872V0.572031V0.591488V0.611242V0.631292V0.651637V0.672274V0.693203V0.714422V0.73593V0.757725V0.779806V0.802171V0.82482V0.84775V0.87096V0.89445V0.918216V0.942259V0.966576V0.991167V1.01603V1.04116V1.06656V1.09223V1.11817V1.14437V1.17083V1.19756V1.22454V1.25179V1.27929V1.30705V1.33506V1.36333V1.39185V1.42062V1.44964V1.47891V1.50842V1.53818V1.56818V1.59843V1.62891V1.65964V1.6906V1.7218V1.75323V1.7849V1.8168V1.84894V1.8813V1.91389V1.9467V1.97974V2.01301V2.04649V2.0802V2.11413V2.14828V2.18264V2.21722V2.25201V2.28702V2.32223V2.35766V2.3933V2.42914V2.46518V2.50144V2.53789V2.57455V2.6114V2.64845V2.68571V2.72315V2.76079V2.79863V2.83665V2.87487V2.91327V2.95186V2.99064V3.0296V3.06875V3.10807V3.14758V3.18726V3.22713V3.26717V3.30738V3.34776V3.38832V3.42905V3.46995V3.51101V3.55224V3.59364V3.6352V3.67692V3.7188V3.76084V3.80304V3.84539V3.8879V3.93056V3.97338V4.01634V4.05946V4.10272V4.14613V4.18968V4.23338V4.27722V4.3212V4.36531V4.40957V4.45397V4.49849V4.54316V4.58795V4.63288V4.67793V4.72311V4.76842V4.81386V4.85942V4.9051V4.9509V4.99682V5.04286V5.08902V5.13529V5.18168V5.22817V5.27478V5.3215V5.36833V5.41527V5.46231V5.50945V5.5567V5.60404V5.65149V5.69904V5.74668V5.79442V5.84226V5.89018V5.9382V5.98631V6.0345V6.08279V6.13116V6.17961V6.22815V6.27676V6.32546V6.37424V6.42309V6.47202V6.52103V6.57011V6.61926V6.66848V6.71776V6.76712V6.81654V6.86603V6.91558V6.96519V7.01486V7.06459V7.11438V7.16423V7.21413V7.26408V7.31409V7.36414V7.41425V7.4644V7.5146V7.56484V7.61513V7.66546V7.71583V7.76624V7.81668V7.86717V7.91769V7.96824V8.01882V8.06944V8.12008V8.17075V8.22145V8.27218V8.32293V8.3737V8.42449V8.4753V8.52613V8.57697V8.62784V8.67871V8.7296V8.7805V8.8314V8.88232V8.93324V8.98417V9.03511V9.08604V9.13698V9.18792V9.23885V9.28978V9.34071V9.39163V9.44255V9.49345V9.54435V9.59523V9.6461V9.69696V9.7478V9.79863V9.84943V9.90022V9.95098V10.0017V10.0524V10.1031V10.1538V10.2044V10.255V10.3056V10.3562V10.4067V10.4571V10.5076V10.558V10.6083V10.6587V10.7089V10.7592V10.8094V10.8595V10.9096V10.9596V11.0096V11.0596V11.1094V11.1593V11.209V11.2588V11.3084V11.358V11.4075V11.457V11.5064V11.5558V11.605V11.6542V11.7034V11.7524V11.8014V11.8503V11.8991V11.9479V11.9966V12.0452V12.0937V12.1421V12.1905V12.2387V12.2869V12.335V12.383V12.4309V12.4787V12.5264V12.574V12.6215V12.669V12.7163V12.7635V12.8106V12.8576V12.9045V12.9513V12.998V13.0446V13.0911V13.1374V13.1837V13.2298V13.2758V13.3217V13.3675V13.4131V13.4586V13.504V13.5493V13.5945V13.6395V13.6844V13.7291V13.7737V13.8182V13.8626V13.9068V13.9509V13.9948V14.0386V14.0823V14.1258V14.1692V14.2124V14.2555V14.2984V14.3412V14.3838V14.4263V14.4686V14.5107V14.5527V14.5946V14.6362V14.6778V14.7191V14.7603V14.8013V14.8422V14.8828V14.9234V14.9637V15.0039V15.0439V15.0837V15.1233V15.1628V15.202V15.2411V15.2801V15.3188V15.3573V15.3957V15.4338V15.4718V15.5096V15.5472V15.5846V15.6218V15.6588V15.6956V15.7322V15.7686V15.8048V15.8408V15.8766V15.9121V15.9475V15.9827V16.0176V16.0523V16.0869V16.1212V16.1553V16.1891V16.2228V16.2562V16.2894V16.3224V16.3551V16.3877V16.42V16.452V16.4839V16.5155V16.5469V16.578V16.6089V16.6395V16.67V16.7001V16.7301V16.7598V16.7892V16.8184V16.8474V16.8761V16.9045V16.9327V16.9607V16.9884V17.0158V17.043V17.0699V17.0965V17.1229V17.1491V17.1749V17.2005V17.2259V17.2509V17.2757V17.3002V17.3245V17.3484V17.3721V17.3955V17.4187V17.4415V17.4641V17.4864V17.5084V17.5301V17.5515V17.5727V17.5935V17.6141V17.6344V17.6543V17.674V17.6934V17.7125V17.7312V17.7497V17.7679V17.7857V17.8033V17.8206V17.8375V17.8541V17.8705V17.8865V17.9022V17.9176V17.9326V17.9474V17.9618V17.9759V17.9897V18.0031V18.0163V18.0291V18.0415V18.0537V18.0655V18.077V18.0881V18.0989V18.1094V18.1195V18.1293V18.1388V41.1265C-0.1 42.7635 1.19861 44.1 2.8 44.1H25.2C26.8014 44.1 28.1 42.7635 28.1 41.1265V18.1388L28.1 8.4753L28.1 2.6114L28.1 0.714422V0.186302V0.0475376V0.0120047V0.00301623V0.000755962V0.000189251C28.1 6.31851e-05 28.1 0 28 0H28.1ZM21.1815 30.939L21.1813 30.9393L14.5845 37.7082C14.4218 37.8752 14.2089 37.9586 13.9963 37.9586C13.7837 37.9586 13.5708 37.8752 13.408 37.7082L6.80935 30.9373C4.66987 28.7417 4.66867 25.1592 6.80744 22.9527C7.84908 21.8895 9.2299 21.3067 10.7007 21.3067C11.277 21.3067 11.8451 21.5379 12.3932 21.8642C12.8351 22.1273 13.2558 22.4469 13.6527 22.7485C13.7487 22.8214 13.8432 22.8932 13.9363 22.9629L13.9962 23.0077L14.0561 22.963C14.1486 22.8939 14.2426 22.8228 14.3379 22.7506C14.7369 22.4485 15.1602 22.1279 15.6043 21.8643C16.1541 21.5379 16.7235 21.3067 17.2993 21.3067C18.7711 21.3067 20.15 21.8905 21.1832 22.9508C22.223 24.0179 22.7956 25.4399 22.7928 26.9554V26.9555C22.7919 28.4652 22.2194 29.8805 21.1815 30.939Z" stroke="#FDFDFD" stroke-width="0.2"/>
</g>
</g>
<defs>
<filter id="filter0_d_1377_2192" x="-4.2002" y="-0.200012" width="36.4004" height="52.4" filterUnits="userSpaceOnUse" color-interpolation-filters="sRGB">
<feFlood flood-opacity="0" result="BackgroundImageFix"/>
<feColorMatrix in="SourceAlpha" type="matrix" values="0 0 0 0 0 0 0 0 0 0 0 0 0 0 0 0 0 0 127 0" result="hardAlpha"/>
<feOffset dy="4"/>
<feGaussianBlur stdDeviation="2"/>
<feComposite in2="hardAlpha" operator="out"/>
<feColorMatrix type="matrix" values="0 0 0 0 0 0 0 0 0 0 0 0 0 0 0 0 0 0 0.25 0"/>
<feBlend mode="normal" in2="BackgroundImageFix" result="effect1_dropShadow_1377_2192"/>
<feBlend mode="normal" in="SourceGraphic" in2="effect1_dropShadow_1377_2192" result="shape"/>
</filter>
<clipPath id="clip0_1377_2192">
<path d="M0 0H28V40C28 42.2091 26.2091 44 24 44H4C1.79086 44 0 42.2091 0 40V0Z" fill="white"/>
</clipPath>
</defs>
</svg>
