<svg width="33" height="32" viewBox="0 0 33 32" fill="none" xmlns="http://www.w3.org/2000/svg">
<path d="M30 1H3C2.60232 1.00046 2.22106 1.15865 1.93985 1.43985C1.65865 1.72106 1.50046 2.10232 1.5 2.5V12.5H3.5V3H29.5V29H3.5V19H1.5V29.5C1.50046 29.8977 1.65865 30.2789 1.93985 30.5601C2.22106 30.8414 2.60232 30.9995 3 31H30C30.3977 30.9995 30.7789 30.8414 31.0601 30.5601C31.3414 30.2789 31.4995 29.8977 31.5 29.5V2.5C31.4995 2.10232 31.3414 1.72106 31.0601 1.43985C30.7789 1.15865 30.3977 1.00046 30 1Z" fill="#F4C343"/>
<path d="M13.5861 22.7066L15.0002 24.1208L23.4142 15.7069L15.0002 7.29294L13.5861 8.70706L19.5859 14.7069H1.5V16.7069H19.5858L13.5861 22.7066Z" fill="#F4C343"/>
</svg>
