<svg width="32" height="32" viewBox="0 0 32 32" fill="none" xmlns="http://www.w3.org/2000/svg">
<path d="M13 1C11.1441 1.0021 9.36488 1.74027 8.05258 3.05257C6.74028 4.36487 6.00211 6.14413 6.00001 8V12.9801C6.00063 13.8166 6.2105 14.6396 6.61051 15.3743L8.32645 18.5201L3.77501 21.4785C3.07551 21.9313 2.50075 22.5523 2.1033 23.2847C1.70586 24.0171 1.49844 24.8375 1.50001 25.6707V31H19.5V29H3.50001V25.6707C3.49907 25.1708 3.62354 24.6786 3.86201 24.2391C4.10049 23.7997 4.44536 23.4271 4.86507 23.1554L10.9688 19.1879L8.36632 14.4166C8.12632 13.9758 8.0004 13.482 8.00001 12.9801V8C8.00001 6.67392 8.52679 5.40215 9.46448 4.46447C10.4022 3.52678 11.6739 3 13 3C14.3261 3 15.5979 3.52678 16.5355 4.46447C17.4732 5.40215 18 6.67392 18 8V12.9801C17.9996 13.482 17.8737 13.9758 17.6337 14.4166L15.0313 19.1879L19.5 22.0927V19.7073L17.6736 18.5198L19.3895 15.3739C19.7895 14.6394 19.9993 13.8164 20 12.9801V8C19.9979 6.14413 19.2597 4.36487 17.9474 3.05257C16.6351 1.74027 14.8559 1.0021 13 1Z" fill="#F4C343"/>
<path d="M26.5 25V21H24.5V25H20.5V27H24.5V31H26.5V27H30.5V25H26.5Z" fill="#F4C343"/>
</svg>
