<svg width="21" height="20" viewBox="0 0 21 20" fill="none" xmlns="http://www.w3.org/2000/svg">
<path d="M9.0835 6.25H7.2085V1.875H5.9585V6.25H4.0835V1.875H2.8335V6.71875C2.8335 8.49629 4.18721 9.97629 5.9585 10.2623V18.4375H7.2085V10.2623C8.97978 9.97629 10.3335 8.49629 10.3335 6.71875V1.875H9.0835V6.25ZM6.5835 9.0625C5.49713 9.0625 4.57084 8.4093 4.22686 7.5H8.94014C8.59615 8.4093 7.66986 9.0625 6.5835 9.0625Z" fill="#F4C343"/>
<path d="M16.4885 1.56977C15.2098 1.76647 14.0438 2.41437 13.2014 3.39624C12.3591 4.37811 11.896 5.62908 11.896 6.92277V13.4375H15.9585V18.4375H17.2085V1.45898L16.4885 1.56977ZM15.9585 12.1875H13.146V6.92277C13.1417 6.05368 13.4111 5.20527 13.9159 4.49779C14.4206 3.7903 15.1353 3.25962 15.9585 2.98094V12.1875Z" fill="#F4C343"/>
</svg>
