<svg width="32" height="32" viewBox="0 0 32 32" fill="none" xmlns="http://www.w3.org/2000/svg">
<rect width="32" height="32" fill="white"/>
<path d="M25.2498 21.5C24.5222 21.5001 23.8044 21.6676 23.1519 21.9895C22.4994 22.3113 21.9297 22.779 21.4868 23.3563L11.2416 17.5415C11.5859 16.5427 11.5859 15.4573 11.2416 14.4585L21.4868 8.64375C22.2019 9.57158 23.2349 10.2021 24.387 10.4141C25.5391 10.6261 26.7289 10.4045 27.7275 9.79199C28.726 9.17946 29.4628 8.21929 29.7959 7.09622C30.1291 5.97315 30.0351 4.76655 29.5322 3.70859C29.0292 2.65063 28.1527 1.81606 27.0714 1.36548C25.9901 0.914896 24.7803 0.880138 23.6749 1.26789C22.5695 1.65564 21.6465 2.43851 21.0836 3.46585C20.5207 4.49319 20.3577 5.69241 20.6258 6.83275L10.206 12.7466C9.55403 12.053 8.70863 11.5713 7.77951 11.364C6.85039 11.1567 5.88042 11.2333 4.99539 11.584C4.11037 11.9347 3.35113 12.5432 2.81614 13.3306C2.28116 14.118 1.99512 15.048 1.99512 16C1.99512 16.952 2.28116 17.882 2.81614 18.6694C3.35113 19.4568 4.11037 20.0653 4.99539 20.416C5.88042 20.7667 6.85039 20.8433 7.77951 20.636C8.70863 20.4287 9.55403 19.947 10.206 19.2534L20.6259 25.1673C20.4012 26.1273 20.4809 27.1334 20.8539 28.046C21.2268 28.9587 21.8745 29.7327 22.7072 30.2606C23.5399 30.7885 24.5162 31.0442 25.5007 30.9923C26.4853 30.9403 27.4292 30.5832 28.2017 29.9706C28.9741 29.3579 29.5368 28.5201 29.8116 27.5732C30.0864 26.6264 30.0597 25.6175 29.7353 24.6865C29.4108 23.7555 28.8047 22.9485 28.001 22.3776C27.1972 21.8066 26.2357 21.4999 25.2498 21.5ZM25.2498 3C25.7937 3 26.3254 3.16128 26.7776 3.46346C27.2299 3.76563 27.5823 4.19512 27.7905 4.69762C27.9986 5.20012 28.0531 5.75305 27.947 6.2865C27.8408 6.81995 27.5789 7.30995 27.1943 7.69454C26.8097 8.07914 26.3197 8.34105 25.7863 8.44716C25.2529 8.55327 24.6999 8.49881 24.1974 8.29067C23.6949 8.08253 23.2654 7.73005 22.9633 7.27782C22.6611 6.82558 22.4998 6.2939 22.4998 5.75C22.5006 5.0209 22.7906 4.3219 23.3062 3.80635C23.8217 3.2908 24.5207 3.00081 25.2498 3ZM6.7498 18.75C6.2059 18.75 5.67422 18.5887 5.22198 18.2865C4.76975 17.9844 4.41727 17.5549 4.20913 17.0524C4.00099 16.5499 3.94653 15.9969 4.05264 15.4635C4.15875 14.9301 4.42066 14.44 4.80526 14.0555C5.18985 13.6709 5.67985 13.4089 6.2133 13.3028C6.74675 13.1967 7.29968 13.2512 7.80218 13.4593C8.30468 13.6675 8.73417 14.0199 9.03634 14.4722C9.33851 14.9244 9.4998 15.4561 9.4998 16C9.49899 16.7291 9.209 17.4281 8.69345 17.9436C8.1779 18.4592 7.4789 18.7492 6.7498 18.75ZM25.2498 29C24.7059 29 24.1742 28.8387 23.722 28.5365C23.2697 28.2344 22.9173 27.8049 22.7091 27.3024C22.501 26.7999 22.4465 26.2469 22.5526 25.7135C22.6588 25.1801 22.9207 24.6901 23.3053 24.3055C23.6898 23.9209 24.1799 23.659 24.7133 23.5528C25.2467 23.4467 25.7997 23.5012 26.3022 23.7093C26.8047 23.9175 27.2342 24.2699 27.5363 24.7222C27.8385 25.1744 27.9998 25.7061 27.9998 26.25C27.999 26.9791 27.709 27.6781 27.1934 28.1936C26.6779 28.7092 25.9789 28.9992 25.2498 29Z" fill="#F4C343"/>
</svg>
