<svg width="33" height="32" viewBox="0 0 33 32" fill="none" xmlns="http://www.w3.org/2000/svg">
<path d="M8 19H10V27H8V19Z" fill="#F4C343"/>
<path d="M13 19H15V27H13V19Z" fill="#F4C343"/>
<path d="M18 19H20V27H18V19Z" fill="#F4C343"/>
<path d="M23 19H25V27H23V19Z" fill="#F4C343"/>
<path d="M30.1051 10.5L25.1289 1H22.8711L27.8473 10.5H5.15269L10.1289 1H7.87113L2.89494 10.5H1.5V17.4667L4.1785 31H28.8198L31.5 17.599V10.5H30.1051ZM29.5 17.401L27.1802 29H5.8215L3.5 17.2708V17H29.5V17.401ZM29.5 15H3.5V12.5H29.5V15Z" fill="#F4C343"/>
</svg>
