<svg width="88" height="88" viewBox="0 0 88 88" fill="none" xmlns="http://www.w3.org/2000/svg">
<path d="M75.625 43.25C75.625 42.1454 74.7296 41.25 73.625 41.25H48.75C47.6454 41.25 46.75 40.3546 46.75 39.25V14.375C46.75 13.2704 45.8546 12.375 44.75 12.375H43.25C42.1454 12.375 41.25 13.2704 41.25 14.375V39.25C41.25 40.3546 40.3546 41.25 39.25 41.25H14.375C13.2704 41.25 12.375 42.1454 12.375 43.25V44.75C12.375 45.8546 13.2704 46.75 14.375 46.75H39.25C40.3546 46.75 41.25 47.6454 41.25 48.75V73.625C41.25 74.7296 42.1454 75.625 43.25 75.625H44.75C45.8546 75.625 46.75 74.7296 46.75 73.625V48.75C46.75 47.6454 47.6454 46.75 48.75 46.75H73.625C74.7296 46.75 75.625 45.8546 75.625 44.75V43.25Z" fill="#A2A8BC"/>
</svg>
