<svg width="16" height="16" viewBox="0 0 16 16" fill="none" xmlns="http://www.w3.org/2000/svg">
<path d="M8.2 11.7696C8.33973 11.7696 8.45653 11.7224 8.5504 11.628C8.6448 11.5336 8.692 11.4165 8.692 11.2768C8.692 11.1376 8.6448 11.0208 8.5504 10.9264C8.45653 10.832 8.33973 10.7848 8.2 10.7848C8.06026 10.7848 7.94346 10.832 7.8496 10.9264C7.75573 11.0208 7.70853 11.1376 7.708 11.2768C7.70746 11.416 7.75466 11.5331 7.8496 11.628C7.94346 11.7224 8.06026 11.7696 8.2 11.7696ZM7.8 9.1232H8.6V4.3232H7.8V9.1232ZM8.2024 15.4C7.2072 15.4 6.2712 15.2112 5.3944 14.8336C4.51813 14.4555 3.75573 13.9424 3.1072 13.2944C2.45867 12.6464 1.94533 11.8848 1.5672 11.0096C1.18907 10.1344 1 9.19867 1 8.2024C1 7.20613 1.1888 6.27013 1.5664 5.3944C1.944 4.51867 2.45707 3.75627 3.1056 3.1072C3.75413 2.45813 4.51573 1.9448 5.3904 1.5672C6.26506 1.1896 7.2008 1.00053 8.1976 1C9.1944 0.999468 10.1304 1.18827 11.0056 1.5664C11.8808 1.94453 12.6432 2.4576 13.2928 3.1056C13.9424 3.7536 14.4557 4.5152 14.8328 5.3904C15.2099 6.2656 15.3989 7.20133 15.4 8.1976C15.4011 9.19387 15.2123 10.1299 14.8336 11.0056C14.4549 11.8813 13.9419 12.6437 13.2944 13.2928C12.6469 13.9419 11.8853 14.4552 11.0096 14.8328C10.1339 15.2104 9.19813 15.3995 8.2024 15.4Z" fill="#FF6767"/>
</svg>
