<svg width="33" height="32" viewBox="0 0 33 32" fill="none" xmlns="http://www.w3.org/2000/svg">
<path d="M28.8203 4.93825C28.0771 4.19502 27.1947 3.60554 26.2236 3.2035C25.2524 2.80145 24.2116 2.59471 23.1605 2.59511C22.1094 2.5955 21.0687 2.80302 20.0979 3.2058C19.127 3.60857 18.2451 4.19871 17.5024 4.9425L16.5329 5.92375L15.5716 4.94462L15.5653 4.93837C14.8225 4.1955 13.9405 3.60622 12.9699 3.20417C11.9993 2.80213 10.959 2.5952 9.90845 2.5952C8.85787 2.5952 7.81758 2.80213 6.84697 3.20417C5.87636 3.60622 4.99444 4.1955 4.25157 4.93837L3.8197 5.37025C2.31941 6.87054 1.47656 8.90536 1.47656 11.0271C1.47656 13.1488 2.31941 15.1836 3.8197 16.6839L15.218 28.0821L16.5052 29.4307L16.5359 29.4L16.5692 29.4333L17.7752 28.1609L29.2522 16.6837C30.7502 15.1823 31.5915 13.1479 31.5915 11.0269C31.5915 8.90592 30.7502 6.87154 29.2522 5.37006L28.8203 4.93825ZM27.8377 15.2696L16.5359 26.5716L5.23382 15.2696C4.10861 14.1443 3.47648 12.6182 3.47648 11.0269C3.47648 9.43564 4.10861 7.90953 5.23382 6.78431L5.66576 6.35243C6.79043 5.22778 8.31562 4.59569 9.90613 4.59509C11.4966 4.59449 13.0223 5.22543 14.1478 6.34925L16.5286 8.77343L18.9208 6.35243C19.4779 5.79528 20.1393 5.35332 20.8673 5.05179C21.5953 4.75025 22.3755 4.59506 23.1634 4.59506C23.9514 4.59506 24.7316 4.75025 25.4595 5.05179C26.1875 5.35332 26.8489 5.79528 27.4061 6.35243L27.8379 6.78425C28.9615 7.91039 29.5924 9.4362 29.5924 11.027C29.5923 12.6177 28.9613 14.1435 27.8377 15.2696Z" fill="#F4C343"/>
</svg>
