<svg width="16" height="16" viewBox="0 0 16 16" fill="none" xmlns="http://www.w3.org/2000/svg">
<path d="M13.7656 5.20709H13.7721L13.761 5.19605L10.054 1.48895L10.0585 1.48438H10.0429H10H9.98438V1.5V5.25V5.26562H10H13.75H13.7656V5.25V5.20709ZM2.48438 14.5V14.5156H2.5H13.75H13.7656V14.5V6.25V6.23438H13.75H9.01562V1.5V1.48438H9H2.5H2.48438V1.5V14.5ZM14.7344 4.79938V15.4844H1.51562V0.515625H10.4506L14.7344 4.79938Z" fill="#252525" stroke="#FDFDFD" stroke-width="0.03125"/>
<path d="M4.25 9.25H11.25V10.25H4.25V9.25Z" fill="#252525"/>
<path d="M4.25 11.75H11.25V12.75H4.25V11.75Z" fill="#252525"/>
</svg>
