<svg width="33" height="32" viewBox="0 0 33 32" fill="none" xmlns="http://www.w3.org/2000/svg">
<path d="M20.9687 2.66691H12.0312C9.57077 2.67044 5.86469 2.31369 4.12491 4.00076C2.38512 5.68782 2.75358 9.28105 2.74994 11.6669V20.3336C2.74994 22.7205 2.38466 26.3124 4.12523 28.0002C5.8658 29.6881 9.56965 29.3336 12.0312 29.3336H20.9687C23.4302 29.3336 27.1343 29.6888 28.8749 28.001C30.6155 26.3132 30.2499 22.7205 30.2499 20.3336V11.6669C30.2463 9.28105 30.6147 5.68804 28.875 4.00098C27.1352 2.31391 23.4291 2.67044 20.9687 2.66691ZM24.4062 21.2669H16.3762C16.1582 21.9615 15.7158 22.5698 15.1142 23.0021C14.5126 23.4344 13.7837 23.6677 13.0349 23.6677C12.2862 23.6677 11.5573 23.4344 10.9557 23.0021C10.3541 22.5698 9.91166 21.9615 9.69369 21.2669H8.59369C8.32019 21.2669 8.05789 21.1616 7.86449 20.974C7.67109 20.7865 7.56244 20.5321 7.56244 20.2669C7.56244 20.0017 7.67109 19.7473 7.86449 19.5598C8.05789 19.3723 8.32019 19.2669 8.59369 19.2669H9.69369C9.91166 18.5723 10.3541 17.964 10.9557 17.5317C11.5573 17.0994 12.2862 16.8661 13.0349 16.8661C13.7837 16.8661 14.5126 17.0994 15.1142 17.5317C15.7158 17.964 16.1582 18.5723 16.3762 19.2669H24.4062C24.6797 19.2669 24.942 19.3723 25.1354 19.5598C25.3288 19.7473 25.4374 20.0017 25.4374 20.2669C25.4374 20.5321 25.3288 20.7865 25.1354 20.974C24.942 21.1616 24.6797 21.2669 24.4062 21.2669ZM24.4062 12.7469H23.3062C23.0882 13.4415 22.6458 14.0498 22.0442 14.4821C21.4426 14.9144 20.7137 15.1477 19.9649 15.1477C19.2162 15.1477 18.4873 14.9144 17.8857 14.4821C17.2841 14.0498 16.8417 13.4415 16.6237 12.7469H8.59369C8.32019 12.7469 8.05789 12.6416 7.86449 12.454C7.67109 12.2665 7.56244 12.0121 7.56244 11.7469C7.56244 11.4817 7.67109 11.2273 7.86449 11.0398C8.05789 10.8523 8.32019 10.7469 8.59369 10.7469H16.6237C16.8417 10.0523 17.2841 9.44398 17.8857 9.01172C18.4873 8.57945 19.2162 8.3461 19.9649 8.3461C20.7137 8.3461 21.4426 8.57945 22.0442 9.01172C22.6458 9.44398 23.0882 10.0523 23.3062 10.7469H24.4062C24.6797 10.7469 24.942 10.8523 25.1354 11.0398C25.3288 11.2273 25.4374 11.4817 25.4374 11.7469C25.4374 12.0121 25.3288 12.2665 25.1354 12.454C24.942 12.6416 24.6797 12.7469 24.4062 12.7469Z" fill="#F4C343"/>
<path d="M14.4787 20.2664C14.4736 20.4439 14.432 20.6187 14.3564 20.7804C14.2807 20.9422 14.1724 21.0876 14.038 21.2082C13.9036 21.3288 13.7456 21.4222 13.5735 21.4828C13.4013 21.5434 13.2184 21.57 13.0355 21.5611C12.8526 21.5522 12.6733 21.508 12.5083 21.431C12.3432 21.3541 12.1957 21.2459 12.0743 21.1129C11.953 20.9798 11.8603 20.8246 11.8016 20.6564C11.743 20.4881 11.7196 20.3102 11.7328 20.1331C11.7588 19.7855 11.9241 19.4616 12.1933 19.2308C12.4624 18.9999 12.8141 18.8804 13.173 18.8978C13.5319 18.9152 13.8695 19.0682 14.1136 19.324C14.3576 19.5798 14.4887 19.9181 14.4787 20.2664ZM21.395 11.7464C21.395 12.1 21.2501 12.4392 20.9922 12.6892C20.7344 12.9393 20.3846 13.0798 20.02 13.0798C19.6553 13.0798 19.3056 12.9393 19.0477 12.6892C18.7898 12.4392 18.645 12.1 18.645 11.7464C18.645 11.3928 18.7898 11.0537 19.0477 10.8036C19.3056 10.5536 19.6553 10.4131 20.02 10.4131C20.3846 10.4131 20.7344 10.5536 20.9922 10.8036C21.2501 11.0537 21.395 11.3928 21.395 11.7464Z" fill="#F4C343"/>
</svg>
