<svg width="25" height="24" viewBox="0 0 25 24" fill="none" xmlns="http://www.w3.org/2000/svg">
<path d="M21.125 12C21.125 11.5858 20.7892 11.25 20.375 11.25H15.25C14.1454 11.25 13.25 10.3546 13.25 9.25V4.125C13.25 3.71079 12.9142 3.375 12.5 3.375C12.0858 3.375 11.75 3.71079 11.75 4.125V9.25C11.75 10.3546 10.8546 11.25 9.75 11.25H4.625C4.21079 11.25 3.875 11.5858 3.875 12C3.875 12.4142 4.21079 12.75 4.625 12.75H9.75C10.8546 12.75 11.75 13.6454 11.75 14.75V19.875C11.75 20.2892 12.0858 20.625 12.5 20.625C12.9142 20.625 13.25 20.2892 13.25 19.875V14.75C13.25 13.6454 14.1454 12.75 15.25 12.75H20.375C20.7892 12.75 21.125 12.4142 21.125 12Z" fill="currentColor"/>
</svg>
