<svg width="20" height="20" viewBox="0 0 20 20" fill="none" xmlns="http://www.w3.org/2000/svg">
<path d="M17.1875 10C17.1875 9.65482 16.9077 9.375 16.5625 9.375H11.625C11.0727 9.375 10.625 8.92728 10.625 8.375V3.4375C10.625 3.09232 10.3452 2.8125 10 2.8125C9.65482 2.8125 9.375 3.09232 9.375 3.4375V8.375C9.375 8.92728 8.92728 9.375 8.375 9.375H3.4375C3.09232 9.375 2.8125 9.65482 2.8125 10C2.8125 10.3452 3.09232 10.625 3.4375 10.625H8.375C8.92728 10.625 9.375 11.0727 9.375 11.625V16.5625C9.375 16.9077 9.65482 17.1875 10 17.1875C10.3452 17.1875 10.625 16.9077 10.625 16.5625V11.625C10.625 11.0727 11.0727 10.625 11.625 10.625H16.5625C16.9077 10.625 17.1875 10.3452 17.1875 10Z" fill="#A2A8BC" fill-opacity="0.5"/>
</svg>
