<svg width="20" height="20" viewBox="0 0 20 20" fill="none" xmlns="http://www.w3.org/2000/svg">
<path d="M15.7812 13.4373C15.3265 13.4373 14.8779 13.542 14.4701 13.7432C14.0622 13.9444 13.7062 14.2366 13.4294 14.5974L7.02613 10.9632C7.24129 10.3389 7.24129 9.66062 7.02613 9.03634L13.4294 5.40212C13.8763 5.98202 14.522 6.37612 15.242 6.50861C15.9621 6.6411 16.7057 6.5026 17.3298 6.11977C17.9539 5.73694 18.4144 5.13683 18.6226 4.43492C18.8308 3.733 18.7721 2.97887 18.4577 2.31765C18.1434 1.65642 17.5956 1.13482 16.9197 0.853204C16.2439 0.571591 15.4878 0.549867 14.7969 0.792213C14.1061 1.03456 13.5292 1.52385 13.1774 2.16594C12.8256 2.80802 12.7237 3.55753 12.8912 4.27025L6.3789 7.96642C5.97139 7.53291 5.44302 7.23184 4.86232 7.10228C4.28162 6.97271 3.67538 7.02062 3.12224 7.23979C2.5691 7.45895 2.09458 7.83927 1.76021 8.33141C1.42585 8.82355 1.24707 9.4048 1.24707 9.99978C1.24707 10.5948 1.42585 11.176 1.76021 11.6681C2.09458 12.1603 2.5691 12.5406 3.12224 12.7598C3.67538 12.9789 4.28162 13.0268 4.86232 12.8973C5.44302 12.7677 5.97139 12.4667 6.3789 12.0331L12.8913 15.7294C12.7509 16.3293 12.8007 16.9581 13.0338 17.5286C13.2669 18.099 13.6717 18.5827 14.1921 18.9127C14.7125 19.2426 15.3227 19.4024 15.9381 19.37C16.5534 19.3375 17.1434 19.1143 17.6262 18.7314C18.109 18.3485 18.4606 17.8248 18.6324 17.2331C18.8041 16.6413 18.7875 16.0107 18.5847 15.4288C18.3819 14.847 18.0031 14.3426 17.5007 13.9858C16.9984 13.6289 16.3974 13.4372 15.7812 13.4373ZM15.7812 1.87478C16.1212 1.87478 16.4535 1.97558 16.7361 2.16444C17.0188 2.3533 17.2391 2.62173 17.3692 2.93579C17.4993 3.24985 17.5333 3.59544 17.467 3.92884C17.4007 4.26225 17.237 4.5685 16.9966 4.80887C16.7562 5.04924 16.45 5.21294 16.1166 5.27926C15.7832 5.34557 15.4376 5.31154 15.1235 5.18145C14.8094 5.05136 14.541 4.83106 14.3522 4.54842C14.1633 4.26577 14.0625 3.93347 14.0625 3.59353C14.063 3.13785 14.2442 2.70097 14.5665 2.37875C14.8887 2.05653 15.3256 1.87529 15.7812 1.87478ZM4.21875 11.7185C3.87881 11.7185 3.54651 11.6177 3.26386 11.4289C2.98121 11.24 2.76092 10.9716 2.63083 10.6575C2.50074 10.3435 2.4667 9.99787 2.53302 9.66447C2.59934 9.33106 2.76304 9.02481 3.00341 8.78444C3.24378 8.54407 3.55003 8.38037 3.88344 8.31406C4.21684 8.24774 4.56242 8.28177 4.87648 8.41186C5.19054 8.54195 5.45898 8.76225 5.64783 9.04489C5.83669 9.32754 5.9375 9.65984 5.9375 9.99978C5.93699 10.4555 5.75575 10.8923 5.43353 11.2146C5.11131 11.5368 4.67443 11.718 4.21875 11.7185ZM15.7812 18.1248C15.4413 18.1248 15.109 18.024 14.8264 17.8351C14.5437 17.6463 14.3234 17.3778 14.1933 17.0638C14.0632 16.7497 14.0292 16.4041 14.0955 16.0707C14.1618 15.7373 14.3255 15.4311 14.5659 15.1907C14.8063 14.9503 15.1125 14.7866 15.4459 14.7203C15.7793 14.654 16.1249 14.688 16.439 14.8181C16.753 14.9482 17.0215 15.1685 17.2103 15.4511C17.3992 15.7338 17.5 16.0661 17.5 16.406C17.4995 16.8617 17.3182 17.2986 16.996 17.6208C16.6738 17.943 16.2369 18.1243 15.7812 18.1248Z" fill="#F4C343"/>
</svg>
