<svg width="32" height="32" viewBox="0 0 32 32" fill="none" xmlns="http://www.w3.org/2000/svg">
<path d="M6.00004 29.5C5.99704 29.8942 6.15051 30.2735 6.42677 30.5547C6.70304 30.8359 7.07955 30.996 7.47373 31H24.5264C24.9205 30.996 25.2971 30.8359 25.5733 30.5547C25.8496 30.2735 26.003 29.8942 26 29.5V9.5H6.00004V29.5ZM8.00004 11.5H24V29H8.00004V11.5Z" fill="#F4C343"/>
<path d="M10.5 13.5H12.5V26H10.5V13.5Z" fill="#F4C343"/>
<path d="M15 13.5H17V26H15V13.5Z" fill="#F4C343"/>
<path d="M19.5 13.5H21.5V26H19.5V13.5Z" fill="#F4C343"/>
<path d="M20.5 5.5V2.5C20.5 1.65887 19.907 1 19.15 1H12.85C12.093 1 11.5 1.65887 11.5 2.5V5.5H4V7.5H28V5.5H20.5ZM13.5 3H18.5V5.5H13.5V3Z" fill="#F4C343"/>
</svg>
