<svg width="29" height="28" viewBox="0 0 29 28" fill="none" xmlns="http://www.w3.org/2000/svg">
<path d="M18.9687 0.666915H10.0312C7.57077 0.670442 3.86469 0.313691 2.12491 2.00076C0.385124 3.68782 0.753582 7.28105 0.749945 9.66691V18.3336C0.749945 20.7205 0.38466 24.3124 2.12523 26.0002C3.8658 27.6881 7.56965 27.3336 10.0312 27.3336H18.9687C21.4302 27.3336 25.1343 27.6888 26.8749 26.001C28.6155 24.3132 28.2499 20.7205 28.2499 18.3336V9.66691C28.2463 7.28105 28.6147 3.68804 26.875 2.00098C25.1352 0.313913 21.4291 0.670442 18.9687 0.666915ZM22.4062 19.2669H14.3762C14.1582 19.9615 13.7158 20.5698 13.1142 21.0021C12.5126 21.4344 11.7837 21.6677 11.0349 21.6677C10.2862 21.6677 9.55725 21.4344 8.95566 21.0021C8.35406 20.5698 7.91166 19.9615 7.69369 19.2669H6.59369C6.32019 19.2669 6.05789 19.1616 5.86449 18.974C5.67109 18.7865 5.56244 18.5321 5.56244 18.2669C5.56244 18.0017 5.67109 17.7473 5.86449 17.5598C6.05789 17.3723 6.32019 17.2669 6.59369 17.2669H7.69369C7.91166 16.5723 8.35406 15.964 8.95566 15.5317C9.55725 15.0994 10.2862 14.8661 11.0349 14.8661C11.7837 14.8661 12.5126 15.0994 13.1142 15.5317C13.7158 15.964 14.1582 16.5723 14.3762 17.2669H22.4062C22.6797 17.2669 22.942 17.3723 23.1354 17.5598C23.3288 17.7473 23.4374 18.0017 23.4374 18.2669C23.4374 18.5321 23.3288 18.7865 23.1354 18.974C22.942 19.1616 22.6797 19.2669 22.4062 19.2669ZM22.4062 10.7469H21.3062C21.0882 11.4415 20.6458 12.0498 20.0442 12.4821C19.4426 12.9144 18.7137 13.1477 17.9649 13.1477C17.2162 13.1477 16.4873 12.9144 15.8857 12.4821C15.2841 12.0498 14.8417 11.4415 14.6237 10.7469H6.59369C6.32019 10.7469 6.05789 10.6416 5.86449 10.454C5.67109 10.2665 5.56244 10.0121 5.56244 9.74692C5.56244 9.4817 5.67109 9.22734 5.86449 9.03981C6.05789 8.85227 6.32019 8.74692 6.59369 8.74692H14.6237C14.8417 8.05229 15.2841 7.44398 15.8857 7.01172C16.4873 6.57945 17.2162 6.3461 17.9649 6.3461C18.7137 6.3461 19.4426 6.57945 20.0442 7.01172C20.6458 7.44398 21.0882 8.05229 21.3062 8.74692H22.4062C22.6797 8.74692 22.942 8.85227 23.1354 9.03981C23.3288 9.22734 23.4374 9.4817 23.4374 9.74692C23.4374 10.0121 23.3288 10.2665 23.1354 10.454C22.942 10.6416 22.6797 10.7469 22.4062 10.7469Z" fill="#F4C343"/>
</svg>
